<svg aria-hidden="true" style="position: absolute; width: 0; height: 0; overflow: hidden;" version="1.1" xmlns="http://www.w3.org/2000/svg" xmlns:xlink="http://www.w3.org/1999/xlink">
    <defs>
        <symbol id="icon-burger" viewBox="0 0 70 32">
            <path d="M0 0h70.4v3.2h-70.4v-3.2z"></path>
            <path d="M0 28.8h70.4v3.2h-70.4v-3.2z"></path>
        </symbol>
        <symbol id="icon-circle-text" viewBox="0 0 32 32">
            <path fill="#fff" style="fill: var(--color1, #fff)" d="M14.396 30.803c-0.453-0.049-0.612-0.122-0.649-0.266l-0.665 0.036c0.098 0.371 0.466 0.564 1.272 0.651 0.835 0.090 1.308-0.081 1.349-0.463 0.036-0.337-0.238-0.553-0.941-0.655l-0.667-0.098c-0.242-0.036-0.306-0.076-0.297-0.156 0.011-0.097 0.203-0.119 0.743-0.061 0.395 0.043 0.588 0.129 0.623 0.29l0.688-0.034c-0.108-0.398-0.459-0.596-1.271-0.684-0.945-0.102-1.421 0.069-1.467 0.493-0.035 0.324 0.22 0.508 0.893 0.613l0.664 0.095 0.095 0.015c0.217 0.038 0.282 0.074 0.274 0.145-0.011 0.1-0.194 0.126-0.643 0.078zM12.795 29.145l-0.648-0.228-0.225 0.642c-0.128 0.365-0.484 0.485-0.954 0.32-0.332-0.116-0.449-0.323-0.352-0.6l0.282-0.801-0.648-0.228-0.327 0.93c-0.182 0.519 0.042 0.912 0.659 1.128 0.399 0.14 0.795 0.114 1.094-0.050l-0.338 0.961 0.648 0.228 0.809-2.303zM8.673 27.246c-0.796-0.519-1.415-0.523-1.744-0.019-0.325 0.499-0.071 1.073 0.72 1.589 0.788 0.514 1.421 0.519 1.747 0.020s0.065-1.077-0.723-1.59zM8.399 27.666c0.45 0.293 0.573 0.533 0.408 0.787s-0.434 0.237-0.884-0.056c-0.45-0.293-0.57-0.531-0.405-0.785s0.432-0.239 0.882 0.054zM6.696 25.707l-0.396-0.453-1.279 0.301 0.472-1.225-0.394-0.451-1.937 0.504 0.467 0.534 1.148-0.343-0.435 1.158 0.413 0.473 1.197-0.312-0.486 1.125 0.49 0.561 0.739-1.874zM4.381 22.954l-0.317-0.609-0.551 0.287c-0.335 0.174-0.671 0.008-0.911-0.454-0.057-0.11-0.101-0.223-0.122-0.318l-0.576 0.274c0.011 0.035 0.035 0.096 0.055 0.133 0.204 0.393 0.545 0.645 0.912 0.71l-0.367 0.246 0.29 0.557 1.588-0.826zM3.085 19.675c-0.238-0.829-0.51-1.161-0.908-1.205l0.075 0.696c0.138 0.021 0.257 0.211 0.38 0.639 0.128 0.444 0.102 0.709-0.081 0.839l-0.603-2.099c-0.063 0.005-0.114 0.016-0.192 0.038-0.541 0.155-0.711 0.777-0.466 1.631 0.253 0.879 0.75 1.301 1.303 1.142 0.569-0.164 0.75-0.784 0.492-1.682zM1.724 20.087c-0.118-0.41-0.104-0.644 0.068-0.778l0.41 1.426c-0.21-0.024-0.355-0.223-0.478-0.648zM2.587 16.581c-0.039-0.861-0.226-1.247-0.604-1.383l-0.089 0.695c0.129 0.053 0.201 0.265 0.221 0.71 0.021 0.462-0.065 0.713-0.273 0.798l-0.099-2.181c-0.062-0.010-0.115-0.011-0.196-0.007-0.562 0.026-0.872 0.59-0.832 1.478 0.042 0.913 0.427 1.44 1.003 1.414 0.592-0.027 0.911-0.589 0.869-1.522zM1.167 16.665c-0.019-0.426 0.049-0.65 0.246-0.741l0.068 1.482c-0.199-0.072-0.294-0.299-0.314-0.741zM2.587 14.070l-2.424-0.283-0.080 0.682 2.424 0.283 0.080-0.682zM2.412 9.908l0.052-0.111c0.158-0.328 0.268-0.432 0.403-0.423l0.172-0.644c-0.383-0.022-0.681 0.268-1.013 1.007-0.344 0.766-0.328 1.269 0.022 1.427 0.309 0.139 0.599-0.055 0.914-0.691l0.3-0.604c0.109-0.219 0.167-0.268 0.241-0.234 0.089 0.040 0.050 0.23-0.173 0.725-0.163 0.362-0.305 0.519-0.469 0.503l-0.181 0.664c0.412 0.021 0.709-0.252 1.044-0.997 0.39-0.867 0.375-1.373-0.014-1.548-0.297-0.133-0.551 0.052-0.86 0.659l-0.296 0.602-0.044 0.085c-0.103 0.194-0.158 0.245-0.223 0.215-0.092-0.041-0.060-0.223 0.125-0.636zM4.482 8.903l0.417-0.546-0.541-0.413c-0.308-0.235-0.312-0.611-0.010-1.006 0.213-0.279 0.446-0.327 0.679-0.149l0.675 0.515 0.417-0.546-0.784-0.598c-0.437-0.334-0.88-0.242-1.277 0.278-0.257 0.336-0.354 0.721-0.29 1.056l-0.81-0.618-0.417 0.546 1.94 1.481zM7.557 5.566c0.738-0.598 0.931-1.187 0.552-1.654-0.375-0.463-1-0.396-1.733 0.199-0.731 0.592-0.93 1.194-0.555 1.656s1.005 0.392 1.735-0.201zM7.241 5.177c-0.417 0.338-0.683 0.382-0.874 0.147s-0.093-0.486 0.324-0.824c0.417-0.338 0.681-0.38 0.871-0.145s0.095 0.484-0.322 0.822zM9.633 4.155l0.553-0.237 0.107-1.31 1.020 0.827 0.55-0.236 0.117-1.998-0.652 0.28-0.028 1.198-0.968-0.771-0.577 0.248-0.072 1.235-0.921-0.809-0.685 0.294 1.555 1.281zM12.961 2.804l0.677-0.112-0.102-0.613c-0.062-0.372 0.2-0.64 0.714-0.726 0.122-0.020 0.243-0.027 0.34-0.017l-0.082-0.633c-0.036-0.001-0.102 0.004-0.143 0.011-0.437 0.073-0.782 0.318-0.958 0.647l-0.12-0.425-0.62 0.103 0.293 1.766zM16.484 2.582c0.862 0.028 1.261-0.128 1.426-0.494l-0.686-0.143c-0.063 0.125-0.279 0.18-0.725 0.165-0.462-0.015-0.706-0.121-0.774-0.334l2.182 0.071c0.015-0.061 0.020-0.113 0.023-0.195 0.018-0.563-0.521-0.916-1.408-0.944-0.914-0.030-1.469 0.314-1.488 0.889-0.019 0.592 0.516 0.954 1.45 0.985zM16.51 1.16c0.426 0.014 0.645 0.099 0.719 0.303l-1.483-0.048c0.088-0.192 0.321-0.27 0.764-0.255zM19.58 3.059c0.832 0.227 1.256 0.168 1.502-0.15l-0.634-0.298c-0.090 0.107-0.313 0.11-0.744-0.007-0.446-0.122-0.659-0.281-0.675-0.505l2.106 0.575c0.029-0.056 0.046-0.106 0.067-0.184 0.148-0.543-0.294-1.011-1.151-1.245-0.882-0.241-1.502-0.036-1.653 0.52-0.156 0.571 0.28 1.048 1.181 1.294zM19.936 1.682c0.411 0.112 0.604 0.246 0.629 0.462l-1.431-0.391c0.13-0.167 0.375-0.188 0.802-0.071zM21.972 3.835l1.021-2.217-0.624-0.287-1.021 2.217 0.624 0.287zM25.978 4.949l0.090 0.083c0.263 0.251 0.329 0.388 0.279 0.513l0.559 0.361c0.139-0.357-0.046-0.73-0.647-1.274-0.623-0.563-1.106-0.703-1.364-0.418-0.227 0.251-0.132 0.587 0.377 1.082l0.482 0.471c0.174 0.171 0.203 0.241 0.149 0.301-0.066 0.072-0.234-0.023-0.637-0.388-0.294-0.266-0.4-0.45-0.334-0.601l-0.576-0.377c-0.147 0.385 0.021 0.752 0.627 1.3 0.705 0.638 1.191 0.779 1.477 0.463 0.218-0.241 0.12-0.54-0.362-1.021l-0.482-0.467-0.068-0.068c-0.153-0.158-0.184-0.225-0.136-0.279 0.068-0.075 0.231 0.011 0.566 0.315zM26.299 7.229l0.392 0.564 0.559-0.388c0.318-0.221 0.677-0.11 0.961 0.299 0.201 0.289 0.174 0.525-0.066 0.692l-0.698 0.485 0.392 0.564 0.81-0.563c0.452-0.314 0.5-0.763 0.127-1.301-0.241-0.347-0.578-0.558-0.916-0.6l0.836-0.581-0.392-0.564-2.004 1.393zM28.531 11.185c0.341 0.887 0.841 1.252 1.403 1.036 0.556-0.214 0.685-0.829 0.346-1.709-0.338-0.878-0.849-1.253-1.404-1.039s-0.683 0.835-0.345 1.712zM28.999 11.005c-0.193-0.501-0.153-0.768 0.13-0.876s0.491 0.062 0.684 0.563c0.193 0.501 0.151 0.765-0.131 0.873s-0.49-0.059-0.683-0.56zM29.23 13.589l0.054 0.6 1.213 0.508-1.102 0.714 0.054 0.596 1.863 0.729-0.064-0.707-1.131-0.397 1.033-0.682-0.057-0.626-1.152-0.451 1.054-0.625-0.067-0.742-1.699 1.082zM29.488 17.177l-0.1 0.679 0.615 0.090c0.373 0.055 0.548 0.387 0.473 0.902-0.018 0.122-0.048 0.24-0.088 0.329l0.628 0.115c0.012-0.034 0.028-0.098 0.034-0.14 0.064-0.438-0.064-0.842-0.323-1.11l0.442 0.016 0.091-0.621-1.771-0.261zM28.617 20.593c-0.293 0.811-0.267 1.239 0.030 1.509l0.347-0.608c-0.099-0.098-0.085-0.321 0.067-0.741 0.157-0.435 0.333-0.634 0.557-0.633l-0.741 2.054c0.054 0.033 0.102 0.054 0.178 0.082 0.53 0.191 1.032-0.212 1.333-1.048 0.31-0.86 0.155-1.494-0.387-1.689-0.557-0.201-1.067 0.196-1.384 1.075zM29.962 21.057c-0.145 0.401-0.293 0.583-0.511 0.591l0.504-1.396c0.156 0.143 0.157 0.389 0.007 0.805zM27.209 23.39c-0.473 0.721-0.548 1.143-0.322 1.474l0.479-0.511c-0.074-0.119-0.008-0.332 0.237-0.705 0.254-0.386 0.471-0.539 0.689-0.486l-1.198 1.825c0.045 0.045 0.086 0.076 0.154 0.121 0.471 0.309 1.053 0.033 1.54-0.709 0.502-0.764 0.498-1.417 0.017-1.733-0.495-0.325-1.084-0.057-1.596 0.723zM28.409 24.154c-0.234 0.356-0.421 0.498-0.634 0.456l0.814-1.24c0.119 0.175 0.062 0.415-0.18 0.785zM25.731 25.428l0.465-0.505 1.795 1.654-0.465 0.505-1.795-1.654z"></path>
            <path fill="#000" style="fill: var(--color2, #000)" d="M17.085 16c0 0.599-0.486 1.085-1.085 1.085s-1.085-0.486-1.085-1.085c0-0.599 0.486-1.085 1.085-1.085s1.085 0.486 1.085 1.085z"></path>
        </symbol>
        <symbol id="icon-logo" viewBox="0 0 59 32">
            <path fill="none" stroke="#000" style="stroke: var(--color2, #000)" stroke-linejoin="miter" stroke-linecap="butt" stroke-miterlimit="4" stroke-width="0.6957" d="M20.305 4.26l5.571-0.942v19.157l-5.571-0.942v-17.273zM17.928 1.884v22.024l10.325 1.884v-25.793l-10.325 1.884zM48.163 12.659v2.374h3.229v6.487h-5.851v-17.263h5.008v3.531h2.376v-5.906h-9.76v22.012h10.603v-11.236h-5.605zM8.075 19.539l0.013 0.059c1.305-5.932 2.606-11.84 3.9-17.715h3.562v22.012h-2.376v-17.194c-0.035 0-3.955 17.205-3.955 17.205h-2.289c0 0-3.92-17.205-3.955-17.205v17.194h-2.376v-22.012h3.562c1.294 5.875 2.595 11.783 3.901 17.715 0.004-0.020 0.008-0.039 0.013-0.059zM38.209 4.258h-7.296v-2.374h9.872v2.374l-7.296 17.263h7.296v2.374h-9.872v-2.374l7.296-17.263zM58.525 23.896h-2.376v-22.012h2.376v22.012zMNaNNaN"></path>
            <path d="M21.468 32v-0.365h-1.814v-1.1h1.462v-0.365h-1.462v-0.984h1.814v-0.365h-2.215v3.18h2.286zM23.403 28.82h0.423l0.869 2.77h0.223l0.869-2.77h0.414l-1.016 3.18h-0.766l-1.016-3.18zM30.545 32v-0.365h-1.885v-1.1h1.462v-0.365h-1.462v-0.984h1.814v-0.365h-2.215v3.18h2.286zM35.328 28.82v3.18h-0.633l-1.479-2.659h-0.098v2.659h-0.392v-3.18h0.633l1.479 2.659h0.098v-2.659h0.392zM38.829 29.177h1.043v-0.356h-2.495v0.356h1.051v2.823h0.401v-2.823z"></path>
        </symbol>
    </defs>
</svg>
